<svg xmlns="http://www.w3.org/2000/svg" version="1.1" xmlns:xlink="http://www.w3.org/1999/xlink" xmlns:svgjs="http://svgjs.com/svgjs" width="1440" height="560" preserveAspectRatio="none" viewBox="0 0 1440 560"><g mask="url(&quot;#SvgjsMask2058&quot;)" fill="none"><g transform="translate(0, 0)" stroke-linecap="round" stroke="url(#SvgjsLinearGradient2059)"><path d="M286 212.06 L286 347.94" stroke-width="23.25"></path><path d="M317 142.84 L317 417.16" stroke-width="23.25"></path><path d="M348 214.12 L348 345.88" stroke-width="23.25"></path><path d="M379 252.42 L379 307.58" stroke-width="23.25"></path><path d="M410 215.93 L410 344.07" stroke-width="23.25"></path><path d="M441 239.05 L441 320.95" stroke-width="23.25"></path><path d="M472 252.18 L472 307.82" stroke-width="23.25"></path><path d="M503 185.58 L503 374.42" stroke-width="23.25"></path><path d="M534 214.42 L534 345.58" stroke-width="23.25"></path><path d="M565 135.64 L565 424.36" stroke-width="23.25"></path><path d="M596 194.3 L596 365.7" stroke-width="23.25"></path><path d="M627 240.87 L627 319.13" stroke-width="23.25"></path><path d="M658 219.32 L658 340.68" stroke-width="23.25"></path><path d="M689 175.1 L689 384.9" stroke-width="23.25"></path><path d="M720 225.17 L720 334.83" stroke-width="23.25"></path><path d="M751 157.32 L751 402.68" stroke-width="23.25"></path><path d="M782 210.32 L782 349.68" stroke-width="23.25"></path><path d="M813 193.86 L813 366.14" stroke-width="23.25"></path><path d="M844 217.42 L844 342.58" stroke-width="23.25"></path><path d="M875 135.78 L875 424.22" stroke-width="23.25"></path><path d="M906 220.1 L906 339.89" stroke-width="23.25"></path><path d="M937 241.89 L937 318.11" stroke-width="23.25"></path><path d="M968 185.01 L968 374.99" stroke-width="23.25"></path><path d="M999 216.09 L999 343.92" stroke-width="23.25"></path><path d="M1030 247.5 L1030 312.5" stroke-width="23.25"></path><path d="M1061 153.45 L1061 406.55" stroke-width="23.25"></path><path d="M1092 120.26 L1092 439.74" stroke-width="23.25"></path><path d="M1123 209.99 L1123 350.01" stroke-width="23.25"></path><path d="M1154 249.51 L1154 310.49" stroke-width="23.25"></path></g></g><defs><mask id="SvgjsMask2058"><rect width="1440" height="560" fill="#ffffff"></rect></mask><linearGradient x1="266.4" y1="280" x2="1173.6" y2="280" gradientUnits="userSpaceOnUse" id="SvgjsLinearGradient2059"><stop stop-color="rgba(58, 124, 195, 0.26)" offset="0"></stop><stop stop-color="rgba(244, 51, 171, 1)" offset="1"></stop></linearGradient></defs></svg>